<svg width="110" height="164" viewBox="0 0 110 164" fill="none" xmlns="http://www.w3.org/2000/svg">
<g clip-path="url(#clip0_37_44)">
<path d="M109.999 0H0.464897V103.606H109.999V0Z" fill="white"/>
<path d="M1.36816 132.476C3.069 136.191 4.91795 136.748 7.09966 136.748C10.0207 136.748 11.9437 134.779 11.9437 132.105C11.9437 129.17 9.61413 128.13 8.91151 127.833C7.87611 127.387 6.13827 126.718 5.10287 126.273C1.51609 124.675 0.443778 122.781 0.443778 119.698C0.443778 116.429 2.36664 112.268 9.05943 112.268C11.7589 112.268 13.3858 112.974 15.1978 113.791C14.4582 115.611 14.3842 115.908 14.0515 117.32H13.5337C12.9792 115.203 11.0193 114.088 8.68966 114.088C5.76858 114.088 4.32633 115.908 4.32633 118.1C4.32633 120.812 6.21227 121.555 9.46629 122.818C12.3135 123.932 13.4228 124.341 14.4952 125.529C16.0482 127.201 16.3069 129.393 16.3069 130.433C16.3069 134.222 13.6816 138.568 6.9149 138.568C3.7348 138.568 1.33133 137.342 0.000175476 136.674C0.628708 134.742 0.665624 134.259 0.850465 132.476L1.36816 132.476Z" fill="white"/>
<path d="M25.1605 128.452C27.2307 127.888 27.5115 127.782 27.6869 127.465C27.7922 127.253 27.8273 127.007 27.8273 126.76C27.8273 124.081 26.3183 123.024 24.4237 123.024C21.757 123.024 20.8449 124.68 20.6341 125.526C20.4587 125.491 20.2833 125.456 20.1079 125.456C19.9325 125.456 19.722 125.491 19.5464 125.526C19.6518 124.857 19.722 124.398 19.722 123.799C19.722 123.482 19.722 123.165 19.6869 122.848C22.3535 121.226 23.4411 120.874 25.2658 120.874C29.0552 120.874 31.6516 122.601 31.6516 126.161C31.6516 127.465 31.5463 131.025 31.5463 132.189C31.5463 135.643 31.5814 136.489 32.7743 136.489C33.1254 136.489 33.4411 136.348 33.7569 136.207C33.6867 136.418 33.6165 136.63 33.6165 136.841C33.6165 137.053 33.6867 137.264 33.7569 137.476C32.8445 137.828 31.7568 138.251 30.7743 138.251C28.7043 138.251 28.2832 137.229 27.8622 136.101C26.7744 137.546 24.9849 138.498 23.1605 138.498C19.0903 138.498 18.3183 135.572 18.3183 134.198C18.3183 130.285 20.7042 129.651 23.9674 128.769L25.1605 128.452ZM27.722 129.333C23.722 130.391 22.2834 130.778 22.2834 133.316C22.2834 135.184 23.1957 136.348 24.5992 136.348C26.4939 136.348 27.722 134.832 27.722 132.999V129.333Z" fill="white"/>
<path d="M48.0362 123.059C49.5799 124.539 49.7204 125.949 49.7204 126.901C49.7204 128.945 48.5625 131.695 43.9659 132.047C43.4747 132.083 41.2993 132.118 40.8784 132.188C40.2467 132.294 39.5802 132.646 39.5802 133.669C39.5802 135.184 40.7732 135.325 41.6853 135.396C42.1065 135.431 46.2116 135.431 47.0538 135.537C49.1941 135.819 49.8258 136.383 50.2117 136.77C51.2995 137.863 51.4748 138.991 51.4748 139.943C51.4748 144.455 47.3344 147.38 42.738 147.38C38.5627 147.38 35.0891 145.794 35.0891 142.551C35.0891 139.308 37.475 138.533 38.0012 138.392L38.8434 138.145C37.2646 137.617 36.3873 136.453 36.3873 135.361C36.3873 134.409 36.4926 132.646 39.5452 131.659C36.1768 130.39 35.6504 128.416 35.6504 126.725C35.6504 122.953 38.5978 120.944 42.4573 120.944C43.3346 120.944 44.0714 121.05 44.9836 121.19C46.9134 121.472 47.1239 121.508 48.6679 121.508C49.4047 121.508 50.8083 121.472 51.4398 121.331C51.3696 121.684 51.3345 121.896 51.3345 122.248C51.3345 122.671 51.3696 123.024 51.4398 123.306C51.089 123.27 49.6504 123.129 49.3345 123.129L48.0362 123.059ZM48.2467 141.564C48.2467 138.674 45.2293 138.462 43.0187 138.462C41.7557 138.462 40.0362 138.639 39.1239 139.379C38.9134 139.555 38.0361 140.401 38.0361 141.776C38.0361 144.596 40.1414 145.759 42.808 145.759C45.2993 145.759 48.2467 144.525 48.2467 141.564ZM45.6853 126.443C45.6853 125.491 45.5099 122.319 42.7379 122.319C39.7205 122.319 39.7205 125.385 39.7205 126.83C39.7205 128.875 40.1766 130.919 42.7379 130.919C44.352 130.919 45.6853 129.544 45.6853 126.443Z" fill="white"/>
<path d="M56.4685 129.756C56.4685 131.06 56.4685 136.418 62.0474 136.418C63.6263 136.418 65.8718 135.537 67.0298 134.198L67.4159 134.444C67.3106 134.691 67.2052 134.938 67.135 135.184L66.8193 136.7C66.5737 136.982 64.293 138.498 60.9247 138.498C59.6265 138.498 56.5036 138.145 54.5738 136.171C52.258 133.81 52.223 130.673 52.223 129.439C52.223 123.588 56.223 120.909 60.3632 120.909C61.6617 120.909 65.2054 120.909 66.9597 124.117C67.5563 125.245 68.0825 127.077 67.9773 129.756L56.4685 129.756ZM63.9422 128.029C63.9422 126.302 63.9422 122.319 60.4332 122.319C56.8193 122.319 56.6088 126.69 56.5386 128.029H63.9422Z" fill="white"/>
<path d="M74.8662 113.083C74.6206 117.031 74.6206 119.534 74.6206 123.869C76.1293 121.719 78.0943 120.979 80.094 120.979C81.9186 120.979 83.8485 121.578 84.9713 123.341C85.7781 124.61 85.7781 126.055 85.7781 127.641C85.7781 128.452 85.708 130.355 85.708 131.448C85.708 133.387 85.8132 136.665 85.9186 138.075C85.2168 137.934 84.5149 137.863 83.7432 137.863C82.9715 137.863 81.8835 138.039 81.3924 138.075C81.6029 136.101 81.7783 133.14 81.7783 130.708C81.7783 127.43 81.7432 126.513 81.5327 125.702C81.1466 124.257 79.9536 123.517 78.5151 123.517C77.2169 123.517 75.6027 124.046 75.0414 125.808C74.7607 126.689 74.6204 127.5 74.6204 129.932C74.6204 134.55 74.6204 134.902 74.7958 138.075C74.094 137.969 73.322 137.863 72.5853 137.863C71.8487 137.863 70.7958 138.039 70.445 138.075C70.7256 133.316 70.7256 131.73 70.7256 124.257L70.6906 117.384C70.6906 115.974 70.5502 113.824 70.445 111.955C71.1466 112.096 71.9186 112.167 72.8309 112.167C73.7082 112.167 74.2694 112.096 74.9362 111.955L74.8662 113.083Z" fill="white"/>
<path d="M89.1588 115.48C89.1588 114.176 90.2816 113.013 91.5798 113.013C92.878 113.013 94.0359 114.176 94.0359 115.48C94.0359 116.82 92.843 117.913 91.5798 117.913C90.3166 117.913 89.1588 116.82 89.1588 115.48ZM89.5798 134.212C89.6499 132.388 89.685 131.101 89.685 129.778C89.685 127.239 89.5798 123.412 89.3342 120.909C90.0359 121.016 90.6675 121.123 91.685 121.123C92.7377 121.123 93.299 121.016 93.8605 120.909L93.7903 122.518C93.7201 124.02 93.5798 127.346 93.5798 128.633C93.5798 130.207 93.65 133.89 93.6851 135.142C93.6851 135.607 93.8254 137.646 93.8254 138.075C93.1586 137.967 92.5623 137.86 91.7903 137.86C90.9832 137.86 90.2115 137.968 89.4044 138.075L89.5798 134.212Z" fill="white"/>
<path d="M99.8236 112.167C100.981 112.167 101.368 112.061 102.069 111.956C101.718 115.762 101.718 121.296 101.718 124.927C101.718 125.632 101.613 134.092 102.034 138.075C101.332 138.004 100.631 137.863 99.8937 137.863C99.2973 137.863 98.7008 137.934 97.4727 138.075C97.8588 135.361 97.8237 124.892 97.8237 124.046C97.8237 117.49 97.6481 114.705 97.4026 111.956C98.2798 112.097 98.7007 112.167 99.8236 112.167Z" fill="white"/>
<path d="M107.682 112.167C108.839 112.167 109.226 112.061 109.927 111.956C109.576 115.762 109.576 121.296 109.576 124.927C109.576 125.632 109.471 134.092 109.892 138.075C109.19 138.004 108.489 137.863 107.752 137.863C107.155 137.863 106.559 137.934 105.331 138.075C105.717 135.361 105.682 124.892 105.682 124.046C105.682 117.49 105.506 114.705 105.261 111.956C106.138 112.097 106.559 112.167 107.682 112.167Z" fill="white"/>
<path d="M110 0V43.1691H81.1777L81.1495 43.0016C80.1612 36.892 76.9933 31.2934 72.2244 27.239C67.4075 23.1399 61.2466 20.8809 54.8824 20.8809C48.5182 20.8809 42.3602 23.1399 37.5404 27.239C32.7743 31.2934 29.6064 36.892 28.6181 43.0016L28.5899 43.1691H0.464897V0H110Z" fill="#EAC7B9"/>
<path d="M109.998 46.9917V56.4631H63.6373C57.0999 56.3098 51.9403 56.1747 50.0284 56.09C36.3383 55.4808 39.0005 46.8223 16.5653 54.6499C15.3226 55.0835 12.1339 56.4631 8.89649 56.4631H0.467079V46.9917H109.998Z" fill="#132C48"/>
<path d="M109.998 60.1984V63.7178C88.6135 60.7913 76.7849 68.0603 64.7326 74.2461H0.467079V60.1984C0.467079 60.1984 7.34402 60.2884 12.8966 58.8713C14.1714 58.546 15.3226 57.8507 16.5653 57.4171C39.0005 49.5895 36.3383 58.248 50.0284 58.8571C57.1951 59.1758 109.998 60.1984 109.998 60.1984Z" fill="#132C48"/>
<path d="M109.999 103.606H0.466118V79.6134C43.5026 75.0359 53.1352 100.607 109.999 97.9234L109.999 103.606Z" fill="#132C48"/>
<path d="M50.0279 83.4229C71.7792 78.6895 80.0136 63.2679 109.999 67.2378V93.0423C85.3596 94.7231 66.5334 90.2927 50.0279 83.4229Z" fill="#132C48"/>
<path d="M78.2386 43.1685H31.528C33.3306 32.0189 43.1019 23.5021 54.8823 23.5021C66.6627 23.5021 76.436 32.0189 78.2386 43.1685Z" fill="#F8A400"/>
<path d="M76.5641 144.527C78.4807 144.527 79.5668 145.714 79.6947 147.447L78.8002 147.49C78.7257 146.249 77.9484 145.319 76.5641 145.319C75.201 145.319 74.2213 146.367 74.2213 148.025C74.2213 149.683 75.201 150.732 76.5641 150.732C77.9484 150.732 78.7257 149.801 78.8002 148.56L79.6947 148.603C79.5668 150.336 78.4808 151.523 76.5641 151.523C74.7112 151.523 73.2736 150.1 73.2736 148.025C73.2736 145.95 74.7111 144.527 76.5641 144.527Z" fill="white"/>
<path d="M83.5719 147.608C83.3162 147.469 83.1354 147.415 82.8479 147.415C82.1769 147.415 81.6765 148.025 81.6765 148.924V151.395H80.7926V146.72H81.6765V147.672C81.8469 147.137 82.326 146.591 82.997 146.591C83.2845 146.591 83.4974 146.666 83.657 146.806L83.5719 147.608Z" fill="white"/>
<path d="M88.6096 149.822C88.3752 150.881 87.5978 151.523 86.4372 151.523C85.0529 151.523 84.0412 150.582 84.0412 149.127C84.0412 147.651 85.0529 146.591 86.3947 146.591C87.8748 146.591 88.6309 147.651 88.6309 148.924V149.277H84.9251C84.9676 150.186 85.6174 150.828 86.4477 150.828C87.225 150.828 87.6831 150.454 87.8748 149.737L88.6096 149.822ZM87.7257 148.699C87.6937 147.95 87.2783 147.266 86.3947 147.266C85.5533 147.266 85.0529 147.929 84.9463 148.699H87.7257Z" fill="white"/>
<path d="M93.4555 150.475C93.4555 150.721 93.5939 150.839 93.8175 150.839C93.9241 150.839 94.0945 150.806 94.2224 150.732V151.213C94.0625 151.373 93.8709 151.491 93.5089 151.491C93.0297 151.491 92.689 151.127 92.6357 150.571C92.38 151.117 91.7198 151.523 90.9637 151.523C90.0587 151.523 89.4731 151.031 89.4731 150.229C89.4731 149.341 90.2291 148.977 91.3472 148.753L92.6037 148.496V148.314C92.6037 147.672 92.2308 147.276 91.5814 147.276C90.9106 147.276 90.5486 147.672 90.41 148.218L89.6222 148.111C89.803 147.233 90.4954 146.591 91.5922 146.591C92.7633 146.591 93.4555 147.191 93.4555 148.378V150.475ZM92.6037 149.084L91.5602 149.309C90.8253 149.469 90.3568 149.608 90.3568 150.175C90.3568 150.571 90.6229 150.87 91.1557 150.87C91.9755 150.87 92.6038 150.25 92.6038 149.309L92.6037 149.084Z" fill="white"/>
<path d="M95.182 147.362H94.479V146.881L94.7772 146.827C95.2137 146.741 95.3095 146.527 95.4162 146.078L95.5545 145.426H96.0552V146.72H97.3649V147.362H96.0552V150.197C96.0552 150.614 96.2255 150.806 96.6301 150.806C96.9283 150.806 97.2371 150.678 97.5033 150.528V151.127C97.1625 151.384 96.8218 151.523 96.3106 151.523C95.6504 151.523 95.182 151.213 95.182 150.304V147.362Z" fill="white"/>
<path d="M98.4197 144.655H99.3354V145.661H98.4197V144.655ZM99.3249 146.72V151.395H98.441V146.72H99.3249Z" fill="white"/>
<path d="M102.073 151.395L100.156 146.72H101.082L102.53 150.314H102.573L103.989 146.72H104.852L102.935 151.395H102.073Z" fill="white"/>
<path d="M109.879 149.822C109.645 150.881 108.867 151.523 107.707 151.523C106.322 151.523 105.311 150.582 105.311 149.127C105.311 147.651 106.322 146.591 107.664 146.591C109.144 146.591 109.9 147.651 109.9 148.924V149.277H106.195C106.237 150.186 106.887 150.828 107.717 150.828C108.495 150.828 108.953 150.454 109.144 149.737L109.879 149.822ZM108.995 148.699C108.963 147.95 108.548 147.266 107.664 147.266C106.823 147.266 106.322 147.929 106.216 148.699H108.995Z" fill="white"/>
<path d="M42.6101 162.203H41.6941V155.464H44.1327C45.7939 155.464 46.7417 156.255 46.7417 157.571C46.7417 158.897 45.794 159.689 44.1327 159.689H42.6101V162.203ZM44.1114 158.93C45.2828 158.93 45.8472 158.448 45.8472 157.571C45.8472 156.704 45.2828 156.223 44.1114 156.223H42.6101V158.93H44.1114Z" fill="white"/>
<path d="M51.2897 161.283C51.2897 161.529 51.428 161.647 51.6517 161.647C51.7582 161.647 51.9287 161.615 52.0565 161.539V162.021C51.8967 162.181 51.705 162.299 51.343 162.299C50.8639 162.299 50.5232 161.935 50.4699 161.379C50.2141 161.925 49.5539 162.331 48.7978 162.331C47.8929 162.331 47.3072 161.839 47.3072 161.037C47.3072 160.149 48.0632 159.785 49.1814 159.561L50.4378 159.304V159.122C50.4378 158.48 50.065 158.084 49.4155 158.084C48.7447 158.084 48.3827 158.48 48.2442 159.026L47.4564 158.919C47.6372 158.042 48.3295 157.4 49.4263 157.4C50.5974 157.4 51.2897 157.999 51.2897 159.186V161.283ZM50.4378 159.892L49.3943 160.117C48.6595 160.277 48.1909 160.416 48.1909 160.984C48.1909 161.379 48.4571 161.678 48.9898 161.678C49.8096 161.678 50.4379 161.058 50.4379 160.117L50.4378 159.892Z" fill="white"/>
<path d="M53.0162 158.17H52.3131V157.688L52.6113 157.635C53.0479 157.549 53.1437 157.335 53.2503 156.886L53.3886 156.234H53.8893V157.528H55.199V158.17H53.8893V161.005C53.8893 161.422 54.0597 161.615 54.4643 161.615C54.7625 161.615 55.0713 161.486 55.3374 161.336V161.935C54.9966 162.192 54.6559 162.331 54.1448 162.331C53.4846 162.331 53.0162 162.021 53.0162 161.112V158.17Z" fill="white"/>
<path d="M57.1591 162.203H56.2752V155.464H57.1591V158.362C57.3827 157.796 58.0109 157.4 58.703 157.4C59.9169 157.4 60.4068 158.213 60.4068 159.304V162.203H59.5232V159.379C59.5232 158.598 59.1504 158.106 58.4156 158.106C57.7128 158.106 57.1592 158.662 57.1592 159.518L57.1591 162.203Z" fill="white"/>
<path d="M65.9238 161.069H65.9663L67.0418 157.528H67.8616L66.3815 162.203H65.5297L64.5394 158.715H64.4965L63.5171 162.203H62.6652L61.1743 157.528H62.0582L63.1551 161.069H63.1976L64.1773 157.528H64.9226L65.9238 161.069Z" fill="white"/>
<path d="M72.3888 161.283C72.3888 161.529 72.5271 161.647 72.7508 161.647C72.8573 161.647 73.0278 161.615 73.1556 161.539V162.021C72.9958 162.181 72.8041 162.299 72.4421 162.299C71.963 162.299 71.6223 161.935 71.569 161.379C71.3132 161.925 70.653 162.331 69.8969 162.331C68.992 162.331 68.4063 161.839 68.4063 161.037C68.4063 160.149 69.1623 159.785 70.2805 159.561L71.5369 159.304V159.122C71.5369 158.48 71.1641 158.084 70.5146 158.084C69.8438 158.084 69.4818 158.48 69.3433 159.026L68.5555 158.919C68.7363 158.042 69.4286 157.4 70.5254 157.4C71.6965 157.4 72.3888 157.999 72.3888 159.186V161.283ZM71.5369 159.892L70.4934 160.117C69.7586 160.277 69.29 160.416 69.29 160.984C69.29 161.379 69.5562 161.678 70.0889 161.678C70.9087 161.678 71.537 161.058 71.537 160.117L71.5369 159.892Z" fill="white"/>
<path d="M74.498 164L75.254 162.192L73.2948 157.528H74.2213L75.7015 161.122H75.744L77.171 157.528H78.0442L75.3607 164L74.498 164Z" fill="white"/>
<path d="M81.4208 159.742C81.4741 160.973 82.3155 161.604 83.4441 161.604C84.4451 161.604 85.0733 161.176 85.0733 160.438C85.0733 159.817 84.6688 159.518 83.7957 159.346L82.4644 159.09C81.4741 158.897 80.7926 158.362 80.7926 157.314C80.7926 156.137 81.7191 155.335 83.1887 155.335C84.8709 155.335 85.8402 156.234 85.8506 157.753L85.0095 157.795C84.9775 156.683 84.3067 156.052 83.1992 156.052C82.2302 156.052 81.687 156.512 81.687 157.261C81.687 157.924 82.1235 158.138 82.9009 158.288L84.1151 158.523C85.3395 158.758 85.9572 159.293 85.9572 160.374C85.9572 161.615 84.8924 162.331 83.444 162.331C81.7936 162.331 80.5902 161.422 80.5902 159.796L81.4208 159.742Z" fill="white"/>
<path d="M89.2273 157.4C90.5903 157.4 91.3251 158.32 91.421 159.443L90.6436 159.496C90.5691 158.673 90.0792 158.116 89.2168 158.116C88.3437 158.116 87.7472 158.791 87.7472 159.871C87.7472 160.951 88.3437 161.625 89.2168 161.625C90.0792 161.625 90.5691 161.037 90.6436 160.213L91.421 160.288C91.3251 161.422 90.5903 162.331 89.2273 162.331C87.8218 162.331 86.842 161.358 86.842 159.871C86.842 158.383 87.8217 157.4 89.2273 157.4Z" fill="white"/>
<path d="M93.3708 162.203H92.4869V155.464H93.3708V158.362C93.5945 157.796 94.2226 157.4 94.9147 157.4C96.1286 157.4 96.6185 158.213 96.6185 159.304V162.203H95.7349V159.379C95.7349 158.598 95.3621 158.106 94.6273 158.106C93.9245 158.106 93.3709 158.662 93.3709 159.518L93.3708 162.203Z" fill="white"/>
<path d="M99.9952 162.331C98.6321 162.331 97.6311 161.326 97.6311 159.871C97.6311 158.415 98.6321 157.4 99.9952 157.4C101.369 157.4 102.38 158.416 102.38 159.871C102.38 161.325 101.369 162.331 99.9952 162.331ZM99.9952 161.647C100.943 161.647 101.475 160.908 101.475 159.871C101.475 158.822 100.943 158.095 99.9952 158.095C99.0582 158.095 98.5363 158.822 98.5363 159.871C98.5363 160.908 99.0582 161.647 99.9952 161.647Z" fill="white"/>
<path d="M105.555 162.331C104.192 162.331 103.191 161.326 103.191 159.871C103.191 158.415 104.192 157.4 105.555 157.4C106.928 157.4 107.94 158.416 107.94 159.871C107.94 161.325 106.928 162.331 105.555 162.331ZM105.555 161.647C106.502 161.647 107.035 160.908 107.035 159.871C107.035 158.822 106.502 158.095 105.555 158.095C104.618 158.095 104.096 158.822 104.096 159.871C104.096 160.908 104.618 161.647 105.555 161.647Z" fill="white"/>
<path d="M109.9 155.464V162.203H109.016V155.464H109.9Z" fill="white"/>
</g>
<defs>
<clipPath id="clip0_37_44">
<rect width="110" height="164" fill="white"/>
</clipPath>
</defs>
</svg>
