<svg width="57" height="57" viewBox="0 0 57 57" fill="none" xmlns="http://www.w3.org/2000/svg">
<path d="M28.5 57C44.2401 57 57 44.2401 57 28.5C57 12.7599 44.2401 0 28.5 0C12.7599 0 0 12.7599 0 28.5C0 44.2401 12.7599 57 28.5 57Z" fill="#1A3757"/>
<path d="M32.9925 20.4233C36.611 20.423 39.3283 25.1584 36.2997 28.3417L28.0021 36.5975L19.7044 28.3417C16.6704 25.1586 19.3868 20.4233 23.0088 20.4233C23.7195 20.4233 24.4643 20.6054 25.2081 21.0172C26.4173 21.6895 27.2789 22.8527 27.703 24.1973C27.7524 24.3541 27.8773 24.4325 28.0021 24.4325C28.1269 24.4325 28.2516 24.3541 28.3011 24.1973C28.7252 22.8527 29.5867 21.6895 30.7959 21.0172C31.5382 20.6055 32.283 20.4234 32.9925 20.4233ZM32.9927 18.0001C31.8368 18.0002 30.7086 18.3007 29.64 18.8934C29.0383 19.228 28.4889 19.6457 28.0021 20.1336C27.5158 19.646 26.967 19.2287 26.3662 18.8947C25.2929 18.3004 24.1646 18.0001 23.0087 18.0001C20.2722 18.0001 17.6805 19.7862 16.5599 22.4446C15.4613 25.0505 16.0034 27.954 17.9745 30.0218L17.9966 30.045L18.0191 30.0675L26.3168 38.3234L28.0019 40L29.6871 38.3234L37.9847 30.0675L38.0081 30.0441L38.0309 30.0201C39.9989 27.9516 40.5381 25.048 39.4383 22.4424C38.3167 19.7852 35.7264 18.0001 32.9927 18.0001Z" fill="white"/>
</svg>
