<svg width="57" height="57" viewBox="0 0 57 57" fill="none" xmlns="http://www.w3.org/2000/svg">
<path d="M28.5 57C44.2401 57 57 44.2401 57 28.5C57 12.7599 44.2401 0 28.5 0C12.7599 0 0 12.7599 0 28.5C0 44.2401 12.7599 57 28.5 57Z" fill="#1A3757"/>
<path d="M29.3059 16.7694C30.9754 16.7694 32.3287 18.1227 32.3287 19.792C32.3287 21.4614 30.9754 22.8148 29.3059 22.8148C27.6364 22.8148 26.2833 21.4615 26.2833 19.792C26.2833 18.1226 27.6365 16.7694 29.3059 16.7694ZM29.3059 14.7253C26.5121 14.7253 24.2392 16.9983 24.2392 19.7921C24.2392 22.586 26.5121 24.8589 29.3059 24.8589C32.0997 24.8589 34.3727 22.586 34.3727 19.7921C34.3727 16.9983 32.0997 14.7253 29.3059 14.7253Z" fill="white"/>
<path d="M25.4113 40.5436V31.9988C25.4113 29.9281 27.0899 28.2495 29.1606 28.2495C31.2312 28.2495 32.9099 29.9281 32.9099 31.9988V40.5436" stroke="white" stroke-width="2.4766" stroke-miterlimit="10"/>
<path d="M22.2134 25.0612C22.984 25.0612 23.6085 25.6858 23.6085 26.4563C23.6085 27.2267 22.984 27.8514 22.2134 27.8514C21.4428 27.8514 20.8184 27.2267 20.8184 26.4563C20.8184 25.6858 21.4429 25.0612 22.2134 25.0612ZM22.2134 23.2786C20.4612 23.2786 19.0358 24.704 19.0358 26.4563C19.0358 28.2085 20.4612 29.634 22.2134 29.634C23.9656 29.634 25.3911 28.2085 25.3911 26.4563C25.3911 24.704 23.9656 23.2786 22.2134 23.2786Z" fill="white"/>
<path d="M19.3473 40.2998V34.1547C19.3473 32.6849 20.5388 31.4934 22.0086 31.4934H23.1838" stroke="white" stroke-width="2.3971" stroke-miterlimit="10"/>
<path d="M36.0592 25.0612C36.8296 25.0612 37.4542 25.6858 37.4542 26.4563C37.4542 27.2267 36.8296 27.8514 36.0592 27.8514C35.2887 27.8514 34.6641 27.2267 34.6641 26.4563C34.6641 25.6858 35.2886 25.0612 36.0592 25.0612ZM36.0592 23.2786C34.307 23.2786 32.8815 24.704 32.8815 26.4563C32.8815 28.2085 34.307 29.634 36.0592 29.634C37.8113 29.634 39.2368 28.2085 39.2368 26.4563C39.2368 24.704 37.8113 23.2786 36.0592 23.2786Z" fill="white"/>
<path d="M39.1022 40.2998V34.1547C39.1022 32.6849 37.9107 31.4934 36.4409 31.4934H35.2657" stroke="white" stroke-width="2.3971" stroke-miterlimit="10"/>
</svg>
