<svg width="57" height="57" viewBox="0 0 57 57" fill="none" xmlns="http://www.w3.org/2000/svg">
<path d="M28.5 57C44.2401 57 57 44.2401 57 28.5C57 12.7599 44.2401 0 28.5 0C12.7599 0 0 12.7599 0 28.5C0 44.2401 12.7599 57 28.5 57Z" fill="#1A3757"/>
<path d="M28.5481 17.6936L28.6737 17.7268L36.882 19.885V30.4633C36.882 31.5037 36.4682 32.4888 35.7552 33.1452L28.5481 39.0586L28.4261 39.1486L28.3082 39.0586L21.3402 33.1452C20.6272 32.4888 20.2135 31.5037 20.2135 30.4633V19.885L28.5481 17.6936ZM28.5497 15.3665L27.976 15.5172L19.6412 17.7086L17.9631 18.1497V30.4632C17.9631 32.1354 18.6384 33.7163 19.8161 34.8005L19.8495 34.8313L19.8841 34.8607L26.8522 40.7741L26.8961 40.8113L26.9418 40.8463L27.0597 40.9365L28.4027 41.963L29.7626 40.9588L29.8846 40.8687L29.931 40.8345L29.9754 40.798L37.1825 34.8847L37.2322 34.844L37.2793 34.8005C38.4569 33.7163 39.1322 32.1354 39.1322 30.4632V18.1497L37.4541 17.7086L29.2458 15.5504L29.123 15.518L28.5497 15.3665Z" fill="white"/>
<path d="M23.7638 26.9588L27.1708 30.1538L33.8713 24.574" stroke="white" stroke-width="2.7264" stroke-miterlimit="10"/>
</svg>
