<svg width="57" height="57" viewBox="0 0 57 57" fill="none" xmlns="http://www.w3.org/2000/svg">
<path d="M28.421 56.8421C44.1175 56.8421 56.8421 44.1175 56.8421 28.421C56.8421 12.7245 44.1175 0 28.421 0C12.7245 0 0 12.7245 0 28.421C0 44.1175 12.7245 56.8421 28.421 56.8421Z" fill="#1A3757"/>
<path d="M26.064 25.9744C28.9551 25.9744 31.2988 23.6307 31.2988 20.7396C31.2988 17.8486 28.9551 15.5049 26.064 15.5049C23.173 15.5049 20.8293 17.8486 20.8293 20.7396C20.8293 23.6307 23.173 25.9744 26.064 25.9744Z" stroke="white" stroke-width="2.7127" stroke-miterlimit="10"/>
<path d="M18.5176 38.019C18.5176 33.7787 21.9549 30.3413 26.1952 30.3413" stroke="white" stroke-width="3.1692" stroke-miterlimit="10"/>
<path d="M32.5688 29.8345L33.9472 33.4079L37.7716 33.6145L34.7991 36.0297L35.7843 39.7308L32.5688 37.6501L29.3534 39.7308L30.3385 36.0297L27.3661 33.6145L31.1905 33.4079L32.5688 29.8345Z" fill="white"/>
</svg>
