<svg width="32" height="27" viewBox="0 0 32 27" fill="none" xmlns="http://www.w3.org/2000/svg">
<path d="M31.2974 3.15478C30.1189 3.68058 28.8093 4.07492 27.6308 4.20637C28.9403 3.41768 29.9879 2.10319 30.5117 0.525797C29.2022 1.31449 27.8927 1.84029 26.4522 2.10319C25.1427 0.788695 23.4403 0 21.607 0C17.9404 0 15.0594 3.02333 15.1904 6.57246C15.1904 7.09825 15.3213 7.62405 15.3213 8.14985C10.0833 7.88695 5.23806 5.38942 2.09522 1.18304C0.392855 4.20637 1.17856 8.14985 4.0595 10.1216C3.01189 9.99014 2.09522 9.72724 1.17856 9.20144V9.33289C1.17856 12.4877 3.40474 15.2481 6.41663 15.7739C5.49996 16.0368 4.45235 16.0368 3.53569 15.9053C4.3214 18.5343 6.80948 20.5061 9.55946 20.5061C6.94043 22.7407 3.40474 23.6608 0 23.2665C2.74998 25.2382 6.28567 26.2898 9.82137 26.2898C21.738 26.2898 28.1546 16.1682 28.1546 7.36115V6.57246C29.3331 5.65231 30.3808 4.46927 31.2974 3.15478Z" fill="white"/>
</svg>
