<svg width="28" height="28" viewBox="0 0 28 28" fill="none" xmlns="http://www.w3.org/2000/svg">
<path d="M13.7672 9.17862C11.2385 9.17862 9.17501 11.2422 9.17501 13.7709C9.17501 16.2995 11.2385 18.3631 13.7672 18.3631C16.2958 18.3631 18.3593 16.2995 18.3593 13.7709C18.3593 11.2422 16.2958 9.17862 13.7672 9.17862ZM27.5402 13.7709C27.5402 11.8692 27.5574 9.98476 27.4506 8.08654C27.3438 5.88171 26.8409 3.92493 25.2286 2.31265C23.6129 0.696923 21.6596 0.197392 19.4548 0.0905958C17.5532 -0.0162006 15.6688 0.00102471 13.7706 0.00102471C11.869 0.00102471 9.98458 -0.0162006 8.08639 0.0905958C5.88161 0.197392 3.92486 0.700368 2.31261 2.31265C0.696911 3.92837 0.197388 5.88171 0.0905941 8.08654C-0.0162003 9.98821 0.00102469 11.8726 0.00102469 13.7709C0.00102469 15.6691 -0.0162003 17.557 0.0905941 19.4552C0.197388 21.66 0.700356 23.6168 2.31261 25.2291C3.9283 26.8448 5.88161 27.3443 8.08639 27.4511C9.98802 27.5579 11.8724 27.5407 13.7706 27.5407C15.6722 27.5407 17.5566 27.5579 19.4548 27.4511C21.6596 27.3443 23.6164 26.8414 25.2286 25.2291C26.8443 23.6134 27.3438 21.66 27.4506 19.4552C27.5609 17.557 27.5402 15.6725 27.5402 13.7709ZM13.7672 20.8367C9.85711 20.8367 6.70151 17.681 6.70151 13.7709C6.70151 9.86074 9.85711 6.70508 13.7672 6.70508C17.6772 6.70508 20.8328 9.86074 20.8328 13.7709C20.8328 17.681 17.6772 20.8367 13.7672 20.8367ZM21.1222 8.06587C20.2093 8.06587 19.472 7.32863 19.472 6.4157C19.472 5.50276 20.2093 4.76552 21.1222 4.76552C22.0351 4.76552 22.7723 5.50276 22.7723 6.4157C22.7726 6.63248 22.7301 6.84718 22.6473 7.04751C22.5645 7.24784 22.4429 7.42987 22.2896 7.58315C22.1363 7.73644 21.9543 7.85798 21.754 7.94082C21.5537 8.02365 21.339 8.06614 21.1222 8.06587Z" fill="white"/>
</svg>
