<svg width="1440" height="58" viewBox="0 0 1440 58" fill="none" xmlns="http://www.w3.org/2000/svg">
<path d="M1440 0V17H830.493C744.547 16.7248 676.714 16.4822 651.579 16.3303C471.596 15.2369 506.596 -0.303956 211.643 13.7454C195.304 14.5238 153.383 17 110.821 17H0V0H1440Z" fill="white"/>
<path d="M1440 24.124V58C1158.85 52.6095 1005.49 46.6058 847.037 58L0 50V24.124C0 24.124 90.4105 24.2899 163.41 21.6794C180.169 21.0801 195.304 19.7994 211.643 19.0009C506.596 4.58226 471.596 20.5315 651.579 21.6534C745.799 22.2403 1440 24.124 1440 24.124Z" fill="white"/>
</svg>